<svg width="70" height="70" viewBox="0 0 70 70" fill="none" xmlns="http://www.w3.org/2000/svg">
<path fill-rule="evenodd" clip-rule="evenodd" d="M33.3376 69.86L54.8593 37.9523L50.4432 66.4356C45.791 68.7182 40.5581 70 35.0256 70C15.6815 70 0 54.33 0 35C0 26.4403 3.07498 18.5983 8.18131 12.5168L45.2941 22.6311L5.20458 28.9564L45.2941 27.2696L8.86187 46.105L47.1227 31.9082L18.9897 60.4423L50.6394 35.2817L33.3376 69.86ZM8.57178 12.0597L46.2788 18.1331L21.9403 2.52425C16.7528 4.61333 12.1809 7.90751 8.57178 12.0597ZM24.1871 1.70795L48.9514 14.619L37.8334 0.110826C36.9071 0.037409 35.9707 0 35.0256 0C31.2427 0 27.5999 0.599255 24.1871 1.70795ZM41.3035 0.560641L52.468 12.0889L49.4716 3.10612C46.8997 1.94108 44.162 1.07755 41.3035 0.560641ZM54.3951 5.83438L56.5473 10.8238V7.38474C55.8505 6.84172 55.1326 6.32446 54.3951 5.83438ZM70 36.9084L67.6598 35.2817L69.6503 40.3126C69.8207 39.1944 69.9381 38.0588 70 36.9084ZM68.3722 45.7372L63.8619 37.9523L65.2 52.7826C66.504 50.5779 67.5728 48.218 68.3722 45.7372ZM62.6918 56.4664L59.3606 38.5146L52.0126 65.6155C56.1627 63.3113 59.7952 60.1889 62.6918 56.4664Z" fill="#221E1F"/>
</svg>
