<?xml version="1.0" standalone="no"?>
<!DOCTYPE svg PUBLIC "-//W3C//DTD SVG 20010904//EN"
 "http://www.w3.org/TR/2001/REC-SVG-20010904/DTD/svg10.dtd">
<svg version="1.0" xmlns="http://www.w3.org/2000/svg"
 width="2208.000000pt" height="2208.000000pt" viewBox="0 0 2208.000000 2208.000000"
 preserveAspectRatio="xMidYMid meet">
<metadata>
Created by potrace 1.14, written by Peter Selinger 2001-2017
</metadata>
<g transform="translate(0.000000,2208.000000) scale(0.100000,-0.100000)"
fill="#000000" stroke="none">
<path d="M3239 14085 c-3 -2 -74 -6 -159 -10 -157 -6 -173 -7 -270 -19 -95
-13 -131 -19 -307 -52 -12 -2 -35 -9 -50 -15 -16 -6 -29 -10 -31 -9 -6 4 -73
-14 -142 -37 -41 -13 -82 -26 -90 -28 -8 -2 -34 -10 -57 -19 -24 -8 -43 -13
-43 -11 0 2 -20 -7 -46 -21 -25 -13 -50 -24 -55 -24 -19 0 -249 -110 -354
-169 -118 -66 -360 -227 -415 -277 -8 -7 -49 -41 -90 -76 -76 -63 -269 -252
-349 -343 -104 -118 -281 -366 -356 -500 -89 -159 -207 -412 -217 -465 -1 -3
-14 -35 -29 -72 -15 -38 -26 -68 -24 -68 2 0 -5 -25 -16 -55 -10 -30 -20 -63
-22 -72 -1 -10 -6 -24 -11 -31 -4 -7 -5 -16 -2 -19 3 -3 1 -13 -3 -22 -5 -9
-12 -33 -15 -55 -4 -21 -8 -41 -10 -45 -5 -7 -29 -143 -41 -226 -4 -22 -8 -51
-10 -65 -19 -114 -27 -572 -12 -700 4 -30 9 -77 12 -104 2 -26 7 -56 9 -65 3
-9 8 -38 12 -66 3 -27 8 -53 10 -56 2 -4 6 -28 9 -54 4 -27 11 -58 17 -69 6
-12 10 -23 9 -26 -2 -6 18 -98 26 -120 3 -8 8 -23 10 -33 10 -56 94 -284 148
-402 20 -44 47 -106 62 -137 14 -32 30 -58 34 -58 5 0 9 -7 9 -16 0 -8 11 -32
25 -52 14 -20 25 -42 25 -49 0 -7 4 -13 8 -13 5 0 14 -11 20 -25 12 -26 127
-203 156 -240 8 -11 43 -56 78 -100 133 -171 351 -389 524 -525 427 -335 950
-565 1464 -646 19 -3 42 -7 50 -9 8 -3 42 -7 75 -11 33 -3 92 -9 130 -14 74
-8 498 -5 575 4 25 3 65 8 89 10 39 5 236 39 286 50 80 18 190 47 245 65 36
13 72 24 80 26 8 2 34 10 58 19 23 8 42 13 42 11 0 -2 20 7 46 21 25 13 50 24
55 24 20 0 226 98 334 158 119 67 294 179 367 236 14 12 41 32 59 46 111 83
325 286 448 425 104 117 294 384 346 485 10 19 21 37 24 40 7 5 136 259 136
269 1 3 11 29 24 56 12 28 24 55 25 60 2 6 8 24 15 40 20 48 90 261 95 289 3
14 7 29 10 34 3 5 7 19 10 33 2 13 11 56 20 94 43 202 62 342 71 533 2 51 7
97 10 102 3 6 2 10 -3 10 -5 0 -6 17 -2 40 4 22 5 41 3 44 -3 2 -6 53 -9 113
-4 114 -8 170 -18 243 -3 25 -8 61 -11 80 -5 41 -13 85 -21 120 -3 14 -8 43
-10 64 -3 22 -8 44 -11 49 -3 6 -7 20 -9 31 -5 33 -50 194 -78 276 -46 139
-87 238 -159 390 -17 36 -30 68 -29 73 1 4 -2 7 -7 7 -5 0 -16 17 -25 38 -18
40 -48 94 -56 102 -3 3 -19 28 -35 55 -15 28 -31 52 -34 55 -7 6 -29 40 -38
60 -4 8 -11 20 -15 25 -5 6 -41 54 -81 107 -102 136 -162 205 -301 343 -115
114 -211 201 -259 234 -12 8 -24 18 -27 21 -18 21 -320 230 -333 230 -2 0 -43
22 -91 50 -74 42 -169 91 -186 95 -3 1 -32 14 -65 29 -91 43 -117 54 -148 61
-15 4 -30 11 -33 16 -3 5 -15 9 -28 9 -12 0 -26 4 -31 8 -6 5 -37 17 -70 26
-33 10 -66 19 -73 22 -7 2 -14 4 -17 5 -2 0 -26 7 -52 15 -47 15 -202 51 -255
59 -16 3 -40 7 -55 9 -16 3 -38 7 -50 10 -47 10 -183 23 -327 31 -54 3 -102 7
-106 10 -4 2 -9 3 -11 0z m746 -1320 c62 -21 133 -57 203 -101 29 -19 57 -34
62 -34 6 0 10 -4 10 -10 0 -5 5 -10 11 -10 6 0 16 -6 23 -12 8 -7 24 -20 36
-28 26 -17 118 -88 143 -110 137 -119 256 -239 327 -330 19 -25 37 -47 40 -50
11 -10 110 -150 110 -155 0 -3 5 -11 11 -18 11 -13 52 -79 54 -87 1 -3 18 -38
38 -77 47 -91 65 -169 45 -189 -12 -12 -22 -12 -73 1 -33 9 -75 25 -93 36 -18
10 -39 19 -46 19 -8 0 -19 7 -26 15 -7 8 -16 12 -21 9 -5 -3 -9 -1 -9 4 0 4
-15 16 -32 26 -46 24 -113 66 -143 88 -60 46 -191 152 -211 170 -251 229 -472
527 -553 742 -44 119 -23 141 94 101z m-1080 -609 c57 -11 190 -72 318 -145
73 -41 333 -224 357 -250 3 -3 32 -28 65 -56 79 -65 70 -58 170 -154 48 -47
114 -116 148 -154 34 -39 67 -75 73 -81 54 -57 250 -330 284 -396 7 -14 16
-27 19 -30 15 -11 121 -238 135 -289 31 -107 15 -133 -74 -117 -14 2 -26 5
-27 6 -2 2 -6 3 -10 4 -45 11 -221 95 -290 139 -24 15 -45 27 -48 27 -3 0 -35
21 -73 47 -37 26 -80 56 -97 67 -16 12 -32 23 -35 26 -3 3 -32 25 -65 50 -33
25 -62 47 -65 50 -3 3 -34 30 -69 60 -72 61 -254 241 -316 312 -117 134 -315
402 -315 427 0 5 -4 11 -9 13 -11 4 -121 207 -121 224 0 7 -5 16 -10 19 -6 4
-8 11 -5 16 4 5 2 9 -3 9 -5 0 -15 26 -23 58 -13 54 -14 64 -11 104 3 24 26
28 97 14z m-855 -898 c19 -7 37 -13 40 -13 3 -1 19 -8 35 -15 17 -7 32 -14 35
-15 19 -5 136 -69 138 -76 2 -5 12 -9 23 -9 10 0 19 -4 19 -10 0 -5 5 -10 10
-10 18 0 216 -137 330 -227 191 -153 463 -430 560 -573 8 -12 25 -34 38 -48
12 -15 46 -63 75 -107 28 -44 54 -82 57 -85 10 -10 66 -111 120 -220 40 -80
72 -174 63 -184 -4 -3 -2 -6 4 -6 13 0 6 -38 -10 -58 -13 -17 -72 -11 -142 13
-86 31 -366 183 -395 215 -3 4 -21 16 -40 28 -20 11 -47 30 -59 42 -13 11 -27
20 -30 20 -3 0 -17 10 -31 23 -14 12 -41 34 -60 48 -92 69 -306 272 -395 373
-6 6 -33 38 -60 71 -28 33 -52 62 -55 65 -3 3 -21 25 -40 50 -19 25 -37 47
-40 50 -3 3 -9 12 -15 21 -5 9 -38 57 -72 107 -35 50 -63 94 -63 98 0 4 -6 15
-14 23 -22 24 -122 229 -141 286 -25 79 -24 131 3 138 22 6 68 -1 112 -15z
m-621 -1073 c68 -26 172 -82 238 -127 23 -15 46 -28 52 -28 6 0 11 -3 11 -7 0
-5 17 -19 38 -33 114 -75 323 -270 448 -420 68 -82 108 -138 210 -295 24 -38
48 -88 46 -97 -1 -5 2 -8 7 -8 9 0 45 -94 56 -146 12 -61 -32 -66 -150 -17
-79 33 -106 48 -212 116 -40 26 -76 47 -78 47 -3 0 -15 9 -27 19 -13 10 -61
49 -108 87 -129 102 -349 329 -400 410 -8 13 -18 24 -22 24 -5 0 -8 6 -8 14 0
8 -4 16 -9 18 -14 5 -119 171 -161 255 -47 92 -72 182 -58 201 16 19 58 15
127 -13z"/>
<path d="M10378 12045 c-2 -3 -38 -7 -79 -10 -41 -3 -81 -7 -89 -10 -8 -2 -30
-7 -49 -10 -19 -3 -38 -8 -43 -11 -5 -3 -20 -8 -35 -10 -44 -8 -189 -83 -256
-132 -70 -51 -153 -131 -186 -179 -23 -34 -37 -42 -38 -20 -1 10 -8 52 -18
106 -2 15 -15 102 -21 146 -1 11 -3 21 -4 23 -3 3 -7 19 -9 32 -1 7 -99 9
-288 8 l-288 -3 -2 -1255 c0 -690 1 -1263 4 -1272 3 -14 9 -16 22 -8 10 5 21
7 24 4 8 -8 167 -10 167 -2 0 4 13 3 28 -2 16 -4 36 -4 44 1 8 5 29 5 45 0 17
-5 36 -5 43 -1 7 5 23 5 34 0 12 -4 30 -4 41 0 11 4 24 5 28 3 8 -5 35 -6 133
-4 l41 1 1 683 c0 376 3 715 7 753 6 66 12 109 15 109 1 0 4 11 7 25 2 14 6
30 7 35 7 35 51 145 58 145 4 0 8 5 8 11 0 16 57 95 98 135 41 41 121 94 167
112 95 36 243 49 328 30 23 -5 53 -12 67 -14 14 -3 35 -12 48 -20 12 -8 22
-12 22 -9 0 13 91 -58 125 -97 40 -47 96 -154 106 -206 1 -4 5 -18 10 -31 5
-13 11 -38 14 -55 2 -17 7 -49 11 -71 4 -22 7 -375 8 -785 l1 -744 33 -7 c17
-3 32 -3 32 1 0 4 16 4 35 0 19 -4 37 -4 40 1 3 4 11 6 18 3 21 -8 217 -10
217 -2 0 4 13 3 29 -2 15 -4 35 -4 42 1 8 5 23 6 34 2 20 -6 165 -7 171 -1 1
2 5 336 7 743 2 407 7 756 10 775 56 278 218 466 444 516 85 18 222 10 328
-19 66 -19 183 -120 217 -188 28 -57 49 -107 52 -121 1 -7 4 -17 8 -23 3 -5 9
-30 13 -55 4 -25 10 -54 13 -65 3 -11 8 -366 9 -790 3 -555 7 -771 15 -776 6
-4 21 -4 33 1 12 5 27 5 35 0 7 -4 24 -5 38 -1 14 4 45 4 69 1 24 -4 43 -3 43
2 0 5 4 7 10 3 9 -5 104 -9 125 -5 6 1 15 1 20 0 6 -1 39 -1 75 -1 61 1 80 1
115 1 8 -1 30 0 48 1 l33 1 -2 792 c-1 713 -4 839 -20 941 -12 75 -16 94 -30
148 -31 119 -67 208 -122 292 -6 11 -15 27 -19 35 -4 8 -12 20 -17 27 -6 6
-33 37 -61 69 -130 148 -342 255 -552 279 -26 3 -64 8 -83 11 -19 3 -44 5 -55
4 -11 -1 -26 -1 -32 -1 -125 7 -275 -15 -404 -59 -61 -21 -151 -61 -159 -71
-3 -4 -15 -9 -27 -13 -13 -4 -23 -12 -23 -17 0 -5 -5 -9 -11 -9 -29 0 -188
-143 -252 -228 l-40 -52 -60 87 c-33 49 -87 111 -119 138 -32 28 -64 55 -71
61 -42 37 -212 115 -282 130 -11 2 -44 9 -72 15 -29 5 -73 12 -98 13 -25 2
-48 6 -51 9 -3 2 -20 1 -38 -3 -18 -4 -40 -4 -48 1 -8 5 -17 6 -20 4z"/>
<path d="M14696 12042 c-2 -1 -36 -4 -77 -7 -450 -33 -822 -274 -1038 -676
-55 -103 -110 -262 -126 -364 -3 -22 -9 -58 -13 -80 -9 -56 -8 -371 1 -425 5
-25 10 -58 13 -75 7 -42 33 -144 45 -180 46 -127 122 -279 154 -305 8 -7 15
-17 15 -23 0 -12 107 -135 165 -190 67 -63 195 -152 280 -195 92 -46 155 -73
155 -66 0 2 12 -2 28 -10 15 -7 54 -20 87 -27 33 -7 62 -13 65 -14 88 -21 335
-34 410 -21 14 3 51 7 82 11 259 28 564 187 743 387 99 111 112 128 175 237
29 50 97 203 106 240 2 9 11 43 19 76 9 33 18 74 20 90 3 17 9 48 12 70 14 78
8 436 -7 475 -1 3 -2 8 -1 12 0 4 -8 42 -20 85 -11 43 -21 83 -22 88 -2 6 -5
15 -8 20 -4 6 -12 28 -19 50 -24 77 -124 254 -195 345 -46 58 -194 198 -250
235 -33 22 -62 42 -65 45 -3 3 -45 26 -95 51 -150 76 -337 127 -490 135 -38 2
-70 4 -70 4 0 3 -77 5 -79 2z m159 -583 c63 -14 165 -51 165 -61 0 -5 5 -8 11
-8 17 0 88 -57 151 -122 49 -50 124 -173 135 -222 1 -6 9 -38 17 -70 27 -108
41 -299 24 -344 -4 -13 -4 -21 0 -18 8 5 0 -67 -14 -134 -3 -14 -7 -34 -9 -45
-17 -90 -92 -228 -166 -304 -46 -48 -169 -131 -193 -131 -8 0 -17 -4 -20 -9
-3 -5 -23 -12 -43 -16 -21 -4 -42 -10 -48 -13 -19 -12 -187 -17 -235 -7 -72
14 -90 20 -150 46 -35 17 -72 37 -82 46 -10 9 -18 13 -18 9 0 -4 -11 3 -24 16
-13 13 -42 40 -64 61 -78 72 -144 208 -173 353 -14 75 -18 305 -7 396 26 202
104 347 252 466 29 23 136 83 156 87 11 2 24 6 28 9 12 7 59 17 112 23 25 3
46 6 48 7 5 5 99 -5 147 -15z"/>
<path d="M17588 12045 c-2 -2 -43 -6 -93 -9 -92 -5 -149 -12 -197 -22 -15 -3
-30 -5 -33 -5 -2 0 -23 -6 -45 -14 -22 -8 -43 -14 -46 -14 -2 1 -19 -4 -37
-11 -18 -7 -41 -15 -52 -19 -62 -22 -227 -114 -292 -163 -91 -69 -253 -232
-253 -255 0 -5 -11 -20 -25 -35 -14 -15 -25 -29 -25 -31 0 -2 -20 -39 -45 -83
-25 -43 -54 -104 -65 -134 -11 -30 -25 -64 -30 -75 -8 -18 -24 -74 -37 -130
-2 -11 -6 -38 -9 -60 -3 -21 -7 -42 -9 -46 -5 -6 -18 -205 -18 -249 4 -253 71
-507 184 -700 38 -64 133 -183 199 -248 62 -61 173 -152 187 -152 3 0 20 -10
37 -23 62 -46 275 -135 361 -150 17 -3 41 -8 55 -12 23 -5 54 -10 140 -20 50
-6 225 -6 290 1 46 4 101 14 214 39 91 20 276 104 370 168 78 53 88 61 155
124 31 29 59 53 64 53 4 0 7 4 7 9 0 6 14 25 31 43 42 45 129 177 172 263 34
69 89 220 101 280 3 17 8 44 11 60 12 61 19 142 19 222 1 46 5 83 9 83 5 0 5
4 2 10 -3 5 -8 40 -10 77 -18 287 -113 541 -282 755 -76 96 -287 278 -321 278
-6 0 -12 4 -14 9 -8 21 -273 132 -353 147 -11 2 -31 6 -45 9 -26 5 -97 15
-141 20 -15 1 -31 5 -37 9 -6 3 -13 2 -16 -3 -3 -5 -21 -6 -40 -1 -19 4 -36 6
-38 5z m91 -580 c51 -8 85 -17 96 -25 6 -4 21 -10 35 -13 45 -11 153 -88 216
-154 64 -66 110 -142 139 -228 16 -48 19 -60 30 -115 23 -116 23 -327 1 -438
-15 -72 -38 -147 -58 -184 -12 -24 -22 -45 -23 -48 -1 -9 -38 -64 -54 -82 -62
-67 -108 -109 -123 -114 -10 -3 -18 -9 -18 -13 0 -11 -148 -78 -187 -84 -17
-3 -36 -8 -42 -11 -11 -7 -170 -8 -217 -1 -78 11 -212 71 -269 121 -17 14 -39
33 -50 43 -67 55 -140 182 -170 299 -25 93 -30 149 -29 302 0 146 9 231 25
262 5 9 8 21 7 25 -4 15 53 151 73 174 10 12 19 26 19 31 0 17 113 123 170
161 72 47 173 85 252 93 35 3 64 7 65 8 4 3 71 -2 112 -9z"/>
<path d="M20739 12046 c-2 -2 -53 -6 -114 -10 -114 -6 -231 -31 -325 -68 -65
-26 -182 -94 -217 -125 -13 -13 -26 -23 -29 -23 -13 0 -121 -124 -165 -188
-27 -41 -49 -72 -50 -70 -2 7 -7 55 -13 113 -3 33 -6 60 -7 60 -2 0 -7 32 -14
100 -3 33 -8 69 -9 80 -2 11 -4 30 -5 42 l-1 22 -290 0 -290 1 0 -1270 c0
-1009 3 -1270 13 -1271 96 -4 217 -2 217 4 0 5 4 6 10 2 9 -5 104 -9 125 -5 6
1 15 1 20 0 6 -1 39 -1 75 -1 36 1 74 1 85 1 24 0 63 1 90 3 20 2 20 10 22
722 0 396 4 731 7 745 3 14 9 39 12 55 24 135 85 256 174 345 69 69 95 87 175
124 103 48 252 63 400 42 98 -15 203 -79 282 -172 20 -23 74 -137 88 -184 34
-116 37 -172 38 -957 1 -391 5 -714 9 -718 4 -4 34 -7 68 -6 33 1 67 1 75 1
36 0 53 0 98 0 27 0 53 -2 58 -5 5 -4 9 -1 9 5 0 6 4 9 10 5 9 -5 104 -9 125
-5 6 1 15 1 20 0 8 -1 41 -1 167 1 16 0 17 56 13 827 -1 455 -5 838 -8 852 -8
38 -15 80 -23 133 -3 26 -10 50 -15 53 -5 3 -7 9 -4 14 4 7 -6 49 -25 95 -54
136 -77 189 -90 203 -8 9 -28 37 -44 62 -100 154 -317 294 -518 334 -16 4 -38
8 -50 11 -13 2 -54 7 -91 9 -37 3 -72 8 -76 10 -5 3 -10 4 -12 2z"/>
</g>
</svg>
