<svg width="62" height="62" viewBox="0 0 62 62" fill="none" xmlns="http://www.w3.org/2000/svg">
<rect width="62" height="62" rx="31" fill="#B8FF65"/>
<path d="M19.3625 30.0817C21.8177 28.7293 24.5585 27.6005 27.1193 26.466C31.5249 24.6078 35.948 22.7817 40.4157 21.0817C41.285 20.792 42.8469 20.5087 43 21.7969C42.9162 23.6203 42.5712 25.4331 42.3345 27.2458C41.7339 31.2322 41.0398 35.205 40.3629 39.1783C40.1297 40.5018 38.4717 41.1869 37.4109 40.3399C34.8614 38.6179 32.2924 36.9126 29.7755 35.1506C28.951 34.3128 29.7156 33.1098 30.4519 32.5115C32.5517 30.4422 34.7786 28.684 36.7686 26.5078C37.3054 25.2114 35.7193 26.3039 35.1962 26.6387C32.3215 28.6196 29.5173 30.7215 26.4865 32.4625C24.9384 33.3147 23.134 32.5864 21.5866 32.1109C20.1992 31.5364 18.166 30.9577 19.3623 30.0818L19.3625 30.0817Z" fill="black"/>
</svg>
