<svg width="62" height="62" viewBox="0 0 62 62" fill="none" xmlns="http://www.w3.org/2000/svg">
<rect width="62" height="62" rx="31" fill="black"/>
<path d="M42.2042 23.5581C41.353 23.95 40.4375 24.2145 39.4764 24.3332C40.4573 23.7243 41.21 22.7597 41.5648 21.6096C40.647 22.174 39.631 22.5837 38.5489 22.8047C37.6828 21.8479 36.4484 21.25 35.0826 21.25C32.4598 21.25 30.3333 23.4542 30.3333 26.1728C30.3333 26.5585 30.3753 26.9341 30.4563 27.2943C26.5092 27.0893 23.0095 25.1297 20.6672 22.1511C20.2585 22.8779 20.0242 23.7234 20.0242 24.6259C20.0242 26.3337 20.8626 27.8404 22.1369 28.7234C21.3587 28.6975 20.626 28.4763 19.9859 28.1074C19.9855 28.1279 19.9855 28.1486 19.9855 28.1698C19.9855 30.5545 21.6225 32.5441 23.7954 32.9967C23.3968 33.1089 22.9772 33.1693 22.544 33.1693C22.2376 33.1693 21.9403 33.1386 21.6503 33.0809C22.2549 35.0365 24.0087 36.4599 26.0866 36.4996C24.4612 37.82 22.4136 38.607 20.1883 38.607C19.8051 38.607 19.4272 38.5834 19.0555 38.5382C21.1577 39.9352 23.6538 40.75 26.3357 40.75C35.0715 40.75 39.8481 33.2488 39.8481 26.7435C39.8481 26.5304 39.8439 26.3176 39.8348 26.1066C40.7624 25.4127 41.568 24.5456 42.2042 23.5581Z" fill="white"/>
</svg>
