<svg width="71" height="71" viewBox="0 0 71 71" fill="none" xmlns="http://www.w3.org/2000/svg">
<circle cx="35.5" cy="35.5" r="35.5" fill="#0952DF" fill-opacity="0.08"/>
<path fill-rule="evenodd" clip-rule="evenodd" d="M34.4146 21.756C29.4239 21.756 25.378 25.8018 25.378 30.7926C25.378 35.7833 29.4239 39.8291 34.4146 39.8291C39.4054 39.8291 43.4512 35.7833 43.4512 30.7926C43.4512 25.8018 39.4054 21.756 34.4146 21.756ZM20.6219 30.7926C20.6219 23.1751 26.7971 16.9999 34.4146 16.9999C42.0321 16.9999 48.2073 23.1751 48.2073 30.7926C48.2073 38.41 42.0321 44.5852 34.4146 44.5852C26.7971 44.5852 20.6219 38.41 20.6219 30.7926ZM47.5106 45.2818C48.4393 46.2105 48.4393 47.7162 47.5106 48.6449L38.474 57.6815C37.5453 58.6102 36.0396 58.6102 35.1109 57.6815C34.1823 56.7528 34.1823 55.2471 35.1109 54.3184L44.1475 45.2818C45.0762 44.3532 46.5819 44.3532 47.5106 45.2818ZM50.5856 21.7561C51.8989 21.7561 52.9636 20.6914 52.9636 19.378C52.9636 18.0647 51.8989 17 50.5856 17C49.2722 17 48.2075 18.0647 48.2075 19.378C48.2075 20.6914 49.2722 21.7561 50.5856 21.7561Z" fill="url(#paint0_linear_2_150)"/>
<defs>
<linearGradient id="paint0_linear_2_150" x1="26.9999" y1="22.9999" x2="45.4999" y2="54.4999" gradientUnits="userSpaceOnUse">
<stop stop-color="#00D5DE"/>
<stop offset="1" stop-color="#0A4BDF"/>
</linearGradient>
</defs>
</svg>
